<svg width="18" height="20" viewBox="0 0 18 20" fill="none" xmlns="http://www.w3.org/2000/svg">
<path fill-rule="evenodd" clip-rule="evenodd" d="M9 1.81818C8.04522 1.81818 7.12955 2.2013 6.45442 2.88325C5.77928 3.5652 5.4 4.49012 5.4 5.45455V8.18182H12.6V5.45455C12.6 4.49012 12.2207 3.5652 11.5456 2.88325C10.8705 2.2013 9.95478 1.81818 9 1.81818ZM14.4 8.18182V5.45455C14.4 4.00791 13.8311 2.62053 12.8184 1.5976C11.8057 0.574674 10.4322 0 9 0C7.56783 0 6.19432 0.574674 5.18162 1.5976C4.16893 2.62053 3.6 4.00791 3.6 5.45455V8.18182H2.7C1.20883 8.18182 0 9.40286 0 10.9091V17.2727C0 18.779 1.20883 20 2.7 20H15.3C16.7912 20 18 18.779 18 17.2727V10.9091C18 9.40286 16.7912 8.18182 15.3 8.18182H14.4ZM2.7 10C2.20294 10 1.8 10.407 1.8 10.9091V17.2727C1.8 17.7748 2.20294 18.1818 2.7 18.1818H15.3C15.7971 18.1818 16.2 17.7748 16.2 17.2727V10.9091C16.2 10.407 15.7971 10 15.3 10H2.7Z" fill="#6C7689"/>
</svg>
